<svg width="40" height="40" viewBox="0 0 40 40" fill="none" xmlns="http://www.w3.org/2000/svg">
<path d="M20 23.3333C23.6767 23.3333 26.6667 20.3433 26.6667 16.6667C26.6667 12.99 23.6767 10 20 10C16.3233 10 13.3333 12.99 13.3333 16.6667C13.3333 20.3433 16.3233 23.3333 20 23.3333ZM20 13.3333C21.8383 13.3333 23.3333 14.8283 23.3333 16.6667C23.3333 18.505 21.8383 20 20 20C18.1617 20 16.6667 18.505 16.6667 16.6667C16.6667 14.8283 18.1617 13.3333 20 13.3333Z" fill="black"/>
<path d="M19.0333 36.3567C19.3154 36.5581 19.6534 36.6664 20 36.6664C20.3466 36.6664 20.6846 36.5581 20.9667 36.3567C21.4733 35.9983 33.3817 27.4 33.3333 16.6667C33.3333 9.315 27.3517 3.33334 20 3.33334C12.6483 3.33334 6.66667 9.315 6.66667 16.6583C6.61833 27.4 18.5267 35.9983 19.0333 36.3567ZM20 6.66667C25.515 6.66667 30 11.1517 30 16.675C30.035 24.0717 22.6867 30.7133 20 32.8917C17.315 30.7117 9.965 24.0683 10 16.6667C10 11.1517 14.485 6.66667 20 6.66667Z" fill="black"/>
</svg>
