<svg width="40" height="40" viewBox="0 0 40 40" fill="none" xmlns="http://www.w3.org/2000/svg">
<path d="M19.9983 12.295C17.9544 12.295 15.9942 13.1069 14.5489 14.5522C13.1036 15.9975 12.2917 17.9577 12.2917 20.0017C12.2917 22.0456 13.1036 24.0058 14.5489 25.4511C15.9942 26.8964 17.9544 27.7083 19.9983 27.7083C22.0423 27.7083 24.0025 26.8964 25.4478 25.4511C26.893 24.0058 27.705 22.0456 27.705 20.0017C27.705 17.9577 26.893 15.9975 25.4478 14.5522C24.0025 13.1069 22.0423 12.295 19.9983 12.295V12.295ZM19.9983 25.0067C18.6705 25.0067 17.397 24.4792 16.4581 23.5402C15.5192 22.6013 14.9917 21.3278 14.9917 20C14.9917 18.6721 15.5192 17.3987 16.4581 16.4598C17.397 15.5208 18.6705 14.9933 19.9983 14.9933C21.3262 14.9933 22.5996 15.5208 23.5386 16.4598C24.4775 17.3987 25.005 18.6721 25.005 20C25.005 21.3278 24.4775 22.6013 23.5386 23.5402C22.5996 24.4792 21.3262 25.0067 19.9983 25.0067V25.0067Z" fill="black"/>
<path d="M28.01 13.8083C29.0023 13.8083 29.8067 13.0039 29.8067 12.0117C29.8067 11.0194 29.0023 10.215 28.01 10.215C27.0177 10.215 26.2133 11.0194 26.2133 12.0117C26.2133 13.0039 27.0177 13.8083 28.01 13.8083Z" fill="black"/>
<path d="M34.2217 10.185C33.8358 9.18863 33.2462 8.2838 32.4906 7.52843C31.7349 6.77306 30.8298 6.18378 29.8333 5.79833C28.6672 5.36059 27.4353 5.1239 26.19 5.09833C24.585 5.02833 24.0767 5.00833 20.0067 5.00833C15.9367 5.00833 15.415 5.00833 13.8233 5.09833C12.579 5.12259 11.3479 5.35933 10.1833 5.79833C9.18656 6.18333 8.28127 6.77245 7.52556 7.52788C6.76984 8.28331 6.18038 9.18837 5.795 10.185C5.35718 11.351 5.12102 12.5831 5.09667 13.8283C5.025 15.4317 5.00333 15.94 5.00333 20.0117C5.00333 24.0817 5.00333 24.6 5.09667 26.195C5.12167 27.4417 5.35667 28.6717 5.795 29.84C6.18146 30.8363 6.77149 31.741 7.52739 32.4963C8.28329 33.2516 9.18844 33.841 10.185 34.2267C11.3474 34.682 12.579 34.9356 13.8267 34.9767C15.4317 35.0467 15.94 35.0683 20.01 35.0683C24.08 35.0683 24.6017 35.0683 26.1933 34.9767C27.4385 34.9513 28.6704 34.7152 29.8367 34.2783C30.8329 33.892 31.7377 33.3022 32.4933 32.5466C33.2489 31.791 33.8386 30.8863 34.225 29.89C34.6633 28.7233 34.8983 27.4933 34.9233 26.2467C34.995 24.6433 35.0167 24.135 35.0167 20.0633C35.0167 15.9917 35.0167 15.475 34.9233 13.88C34.9039 12.6171 34.6666 11.3671 34.2217 10.185V10.185ZM32.1917 26.0717C32.1809 27.0322 32.0056 27.9837 31.6733 28.885C31.423 29.5331 31.0399 30.1217 30.5485 30.6128C30.057 31.1039 29.4683 31.4868 28.82 31.7367C27.9287 32.0674 26.9873 32.2427 26.0367 32.255C24.4533 32.3283 24.0067 32.3467 19.9467 32.3467C15.8833 32.3467 15.4683 32.3467 13.855 32.255C12.9049 32.2434 11.9639 32.068 11.0733 31.7367C10.4228 31.4883 9.83167 31.1062 9.33815 30.6149C8.84463 30.1237 8.45973 29.5344 8.20833 28.885C7.88074 27.9934 7.70552 27.0531 7.69 26.1033C7.61833 24.52 7.60167 24.0733 7.60167 20.0133C7.60167 15.9517 7.60167 15.5367 7.69 13.9217C7.70077 12.9617 7.87609 12.0107 8.20833 11.11C8.71667 9.795 9.75833 8.76 11.0733 8.25666C11.9643 7.9269 12.905 7.7516 13.855 7.73833C15.44 7.66666 15.885 7.64666 19.9467 7.64666C24.0083 7.64666 24.425 7.64666 26.0367 7.73833C26.9873 7.74977 27.9289 7.92512 28.82 8.25666C29.4682 8.50712 30.0569 8.89033 30.5483 9.38172C31.0397 9.8731 31.4229 10.4618 31.6733 11.11C32.0009 12.0016 32.1761 12.9419 32.1917 13.8917C32.2633 15.4767 32.2817 15.9217 32.2817 19.9833C32.2817 24.0433 32.2817 24.48 32.21 26.0733H32.1917V26.0717Z" fill="black"/>
</svg>
