<svg width="20" height="20" viewBox="0 0 20 20" fill="none" xmlns="http://www.w3.org/2000/svg">
<path d="M5 17.66V19C5 19.2652 5.10536 19.5196 5.29289 19.7071C5.48043 19.8947 5.73478 20 6 20H14C14.2652 20 14.5196 19.8947 14.7071 19.7071C14.8946 19.5196 15 19.2652 15 19V17.66C16.5202 16.7823 17.7825 15.52 18.6602 13.9999C19.5379 12.4797 20 10.7553 20 9.00001C20 8.73479 19.8946 8.48044 19.7071 8.2929C19.5196 8.10537 19.2652 8.00001 19 8.00001C18.9817 7.38774 18.8066 6.79041 18.4914 6.26515C18.1763 5.7399 17.7316 5.3043 17.2 5.00001C17.0725 4.12895 16.6354 3.33302 15.9686 2.75814C15.3019 2.18326 14.4503 1.86795 13.57 1.87001C13.2324 1.86943 12.8962 1.91313 12.57 2.00001C11.8817 1.34286 10.9666 0.976196 10.015 0.976196C9.06336 0.976196 8.14831 1.34286 7.46 2.00001C7.13379 1.91313 6.79758 1.86943 6.46 1.87001C5.57623 1.86311 4.71981 2.17624 4.04892 2.75156C3.37802 3.32687 2.93795 4.12552 2.81 5.00001C2.27652 5.30305 1.82987 5.73811 1.51291 6.26345C1.19596 6.78879 1.01934 7.38677 1 8.00001C0.734784 8.00001 0.48043 8.10537 0.292893 8.2929C0.105357 8.48044 0 8.73479 0 9.00001C4.45922e-05 10.7553 0.462128 12.4797 1.33981 13.9999C2.21749 15.52 3.47985 16.7823 5 17.66V17.66ZM4.11 6.66001L4.94 6.40001L4.78 5.50001C4.78261 5.28464 4.82762 5.07189 4.91246 4.87391C4.9973 4.67594 5.1203 4.49661 5.27445 4.34618C5.4286 4.19574 5.61087 4.07715 5.81086 3.99716C6.01084 3.91717 6.22463 3.87737 6.44 3.88001C6.72879 3.87836 7.01366 3.947 7.27 4.08001L8.08 4.53001L8.58 3.76001C8.73637 3.52695 8.9477 3.33596 9.19535 3.20389C9.44299 3.07182 9.71934 3.00274 10 3.00274C10.2807 3.00274 10.557 3.07182 10.8047 3.20389C11.0523 3.33596 11.2636 3.52695 11.42 3.76001L11.92 4.53001L12.73 4.08001C12.9863 3.947 13.2712 3.87836 13.56 3.88001C13.9925 3.87457 14.4099 4.0392 14.7222 4.33845C15.0346 4.6377 15.2169 5.04764 15.23 5.48001L15.07 6.33001L15.89 6.61001C16.1925 6.70467 16.4598 6.88759 16.6576 7.13526C16.8554 7.38294 16.9746 7.68407 17 8.00001H3C3.0254 7.68407 3.14465 7.38294 3.34243 7.13526C3.54022 6.88759 3.80751 6.70467 4.11 6.61001V6.66001ZM17.94 10C17.7732 11.3092 17.285 12.5568 16.519 13.6316C15.7531 14.7064 14.7331 15.575 13.55 16.16C13.3836 16.2439 13.2439 16.3726 13.1467 16.5316C13.0495 16.6906 12.9987 16.8736 13 17.06V18H7V17.06C7.0013 16.8736 6.95049 16.6906 6.85331 16.5316C6.75612 16.3726 6.61644 16.2439 6.45 16.16C5.26691 15.575 4.24693 14.7064 3.48096 13.6316C2.71499 12.5568 2.22684 11.3092 2.06 10H17.94Z" fill="white"/>
</svg>
